<svg xmlns="http://www.w3.org/2000/svg" version="1.1" xmlns:xlink="http://www.w3.org/1999/xlink" xmlns:svgjs="http://svgjs.dev/svgjs" width="100%" height="100%" viewBox="0 0 1000 600"><rect width="1000" height="600" x="0" y="0" fill="#343a40"/><g><rect width="333.3333333333333" height="333.3333333333333" rx="13.333333333333334" ry="13.333333333333334" y="194.37391843779756" fill="#dbb98f" transform="matrix(0.7261038959657624,0,0,0.7261038959657625,0,37.84704374891825)" x="172.15170288085938"/><path d="M338.70603773114715 312.17148930747567L338.70603773114715 312.17148930747567Q333.17877607457893 312.17148930747567 329.8084945766715 308.71133363629076Q326.46068162208337 305.22870942178633 326.46068162208337 298.91504874903967L326.46068162208337 298.91504874903967Q326.46068162208337 291.88239469007283 329.8084945766715 288.961484058553Q333.17877607457893 286.0405734270332 338.7734433611053 286.0405734270332L338.7734433611053 286.0405734270332Q344.63773316746426 286.0405734270332 347.9181404920942 289.18616949174685Q351.17607927340475 292.3542340997799 351.17607927340475 298.91504874903967L351.17607927340475 298.91504874903967Q351.17607927340475 305.07142961855067 347.87320340545546 308.6214594630132Q344.54785899418675 312.17148930747567 338.70603773114715 312.17148930747567ZM328.84234721393796 436.0405686272345L328.84234721393796 327.2703504181011L348.8168822248695 327.2703504181011L348.8168822248695 436.0405686272345L328.84234721393796 436.0405686272345Z " fill="#6c757d" transform="matrix(0.7261038959657624,0,0,0.7261038959657625,0,37.84704374891825)"/><path d="M600.9618748328558 311.9541207416546L600.9618748328558 311.9541207416546Q595.4805913855481 311.9541207416546 592.1383453810922 308.52274817707985Q588.818381016666 305.0690939724754 588.818381016666 298.80795312412795L588.818381016666 298.80795312412795Q588.818381016666 291.83379979482993 592.1383453810922 288.93718659096817Q595.4805913855481 286.04057338710635 601.0287197529449 286.04057338710635L601.0287197529449 286.04057338710635Q606.8442278006983 286.04057338710635 610.0973472450353 289.16000299126523Q613.3281850493427 292.3017142354538 613.3281850493427 298.80795312412795L613.3281850493427 298.80795312412795Q613.3281850493427 304.91312249226746 610.0527839649759 308.43362161696103Q606.7551012405794 311.9541207416546 600.9618748328558 311.9541207416546ZM591.1802348598148 434.79280222542445L591.1802348598148 326.92738284161715L610.9886128462235 326.92738284161715L610.9886128462235 434.79280222542445L591.1802348598148 434.79280222542445ZM632.1338892344147 434.79280222542445L632.1338892344147 300.9915538470392L648.1989516958329 300.9915538470392L680.863835979382 388.95946868431895L681.3317504200058 388.95946868431895Q681.01980745959 384.8150836387937 680.5073297389067 379.6903064319612Q679.9948520182235 374.54324758509915 679.6160641377185 367.346277855504Q679.2149946171837 360.149308125909 679.2149946171837 349.81062715212533L679.2149946171837 349.81062715212533L679.2149946171837 300.9915538470392L697.240841401216 300.9915538470392L697.240841401216 434.79280222542445L681.01980745959 434.79280222542445L648.5108946562486 349.16445959126384L647.8870087354169 349.16445959126384Q648.265796615922 353.86588563753185 648.7559926965755 359.43629564495836Q649.2239071371994 365.0067056523849 649.6026950177043 373.4514472236435Q650.003764538239 381.9184704349318 650.003764538239 395.4657075729932L650.003764538239 395.4657075729932L650.003764538239 434.79280222542445L632.1338892344147 434.79280222542445ZM745.5697186256486 435.97372914699895L745.5697186256486 435.97372914699895Q740.4003781387568 435.97372914699895 735.1419110917461 434.4362959849492Q729.9057256847652 432.9211444629292 725.4716793188537 428.2197184166612Q721.0376329529422 423.51829237039317 718.3861177894071 414.00403207770864Q715.7123209858423 404.4674901449945 715.7123209858423 388.4915542436952L715.7123209858423 388.4915542436952L715.7123209858423 371.57978946114815Q715.7123209858423 355.826669960146 718.4529627094962 346.62435262787733Q721.1936044331501 337.4220352956087 725.6722140791211 332.92114400960804Q730.1285420850622 328.4202527236074 735.387009132073 327.03879104176565Q740.6231945390539 325.6796109999535 745.6365635457378 325.6796109999535L745.6365635457378 325.6796109999535Q750.4939610722137 325.6796109999535 755.6633015591055 326.9719461216765Q760.8326420459973 328.2642812433995 765.2221251318495 332.6760459692813Q769.6116082177016 337.1100923351928 772.3522499413554 346.4015362275803Q775.0928916650092 355.670698479938 775.0928916650092 371.57978946114815L775.0928916650092 371.57978946114815L775.0928916650092 388.4915542436952Q775.0928916650092 404.24467374469737 772.2854050212662 413.69208911729277Q769.4556367374936 423.11722284985854 764.9993087315523 427.93005709627505Q760.5206990855814 432.7651729827212 755.395921878749 434.3694510648601Q750.2711446719165 435.97372914699895 745.5697186256486 435.97372914699895ZM745.7256901058565 421.24556508736316L745.7256901058565 421.24556508736316Q751.0510020729563 421.24556508736316 753.123194595719 415.36321211952077Q755.1953871184817 409.4808591516784 755.1953871184817 394.3739072115376L755.1953871184817 394.3739072115376L755.1953871184817 367.502249335712Q755.1953871184817 352.30617083545235 753.123194595719 346.35697294752083Q751.0510020729563 340.4077750595893 745.7256901058565 340.4077750595893L745.7256901058565 340.4077750595893Q740.15528009843 340.4077750595893 737.8825528154 346.35697294752083Q735.60982553237 352.30617083545235 735.60982553237 367.502249335712L735.60982553237 367.502249335712L735.60982553237 394.3739072115376Q735.60982553237 409.4808591516784 737.8825528154 415.36321211952077Q740.15528009843 421.24556508736316 745.7256901058565 421.24556508736316ZM794.2105388104972 407.9211443495989L794.2105388104972 341.9674898616688L785.0527847582879 341.9674898616688L785.0527847582879 326.92738284161715L795.9262250927845 326.92738284161715L799.9369202981316 298.96392460433594L814.0189167969058 298.96392460433594L814.0189167969058 326.92738284161715L832.0447635809381 326.92738284161715L832.0447635809381 341.9674898616688L814.0189167969058 341.9674898616688L814.0189167969058 408.07711582980687Q814.0189167969058 415.14039571922365 816.5813054003221 417.012053481719Q819.1214123637086 418.8837112442143 822.575066568313 418.8837112442143L822.575066568313 418.8837112442143Q828.0563500156206 418.8837112442143 831.977918660849 416.4550124809764L831.977918660849 416.4550124809764L831.977918660849 428.99957581770093Q828.5911093763336 433.1439608632262 824.1347813703925 434.5922674651572Q819.6784533644512 436.0405740670881 815.5117866788962 436.0405740670881L815.5117866788962 436.0405740670881Q810.0305032315885 436.0405740670881 805.1285424250532 433.9015366242362Q800.2488632585474 431.7402175413548 797.2185602145074 425.65732981324504Q794.2105388104972 419.5967237251649 794.2105388104972 407.9211443495989L794.2105388104972 407.9211443495989ZM841.75955863389 390.6083100465172L841.75955863389 390.6083100465172L841.75955863389 370.2428910593659Q841.75955863389 357.87658084287887 843.876314436712 349.72150059200646Q845.9930702395342 341.56642034113406 849.4690060841683 336.70902281465806Q852.9672235688322 331.85162528818216 857.156171894417 329.51205308506303Q861.3451202200017 327.1724808819439 865.489505265527 326.4149051209339Q869.6561719510821 325.6796109999535 873.0875445156569 325.6796109999535L873.0875445156569 325.6796109999535Q880.2176693251627 325.6796109999535 886.2559937732132 328.6876324039639Q892.2943182212636 331.6956538079743 895.9262255461056 339.02631337774756Q899.5804145109773 346.35697294752083 899.5804145109773 359.3471690848395L899.5804145109773 359.3471690848395Q899.5804145109773 365.85340797351375 898.8674020300268 372.6270265425444Q898.1543895490763 379.40064511157505 896.9957442675316 384.56998559846693L896.9957442675316 384.56998559846693L861.6570631804176 384.56998559846693L861.6570631804176 395.55483413311197Q861.6570631804176 409.63683063188626 864.0411986635961 415.4523386796395Q866.4253341467747 421.24556508736316 873.1766710757756 421.24556508736316L873.1766710757756 421.24556508736316Q876.8531416806773 421.24556508736316 879.8388814446578 418.05929056311516Q882.8023395686087 414.8952976788969 882.8023395686087 406.3614295475195L882.8023395686087 406.3614295475195L882.8023395686087 401.6600035012515L899.0902184303238 401.6600035012515L899.0902184303238 406.5842459478166Q899.0902184303238 421.93629592828404 891.7818405005803 428.95501253764144Q884.4511809308069 435.97372914699895 870.5920008323297 435.97372914699895L870.5920008323297 435.97372914699895Q856.6436941737337 435.97372914699895 849.2016264038118 425.3231052127994Q841.75955863389 414.65019963857014 841.75955863389 390.6083100465172ZM861.6570631804176 371.2678465007323L881.0866532863213 371.2678465007323Q881.2426247665292 369.52987857841526 881.3094696866184 366.0539427337811Q881.3985962467373 362.578006889147 881.3985962467373 360.46125108632486L881.3985962467373 360.46125108632486Q881.3985962467373 349.72150059200646 879.1258689637073 345.1092011058573Q876.8531416806773 340.47461997967844 871.9288992341121 340.4077750595893L871.9288992341121 340.4077750595893Q866.6704321871014 340.4077750595893 864.1526068637447 345.6885237466297Q861.6570631804176 350.9692724336701 861.6570631804176 364.9175790922661L861.6570631804176 364.9175790922661L861.6570631804176 371.2678465007323ZM916.0242648529006 434.79280222542445L916.0242648529006 292.3017142354538L935.8326428393093 292.3017142354538L935.8326428393093 321.04502987377475L935.2087569184775 335.30527949278667L935.2978834785963 335.3944060529054Q938.0385252022502 331.62880888788516 942.4280082881023 328.6876324039639Q946.7952097339246 325.74645592004265 953.2346037025097 325.74645592004265L953.2346037025097 325.74645592004265Q955.7301473858369 325.74645592004265 959.4511812707977 326.7268480813498Q963.1722151557587 327.7072402426568 966.8932490407196 331.36142920752866Q970.6142829256805 334.9933365323708 973.1321082490374 342.8364738228273Q975.6276519323644 350.6573294732541 975.6276519323644 364.44966465164225L975.6276519323644 364.44966465164225L975.6276519323644 397.11454893519146Q975.6276519323644 410.81775755346075 973.0875449689779 418.70545812397665Q970.5474380055914 426.5708770544629 966.7372775605118 430.2919109394238Q962.9493987554616 434.0129448243848 959.0723933902927 435.0379002657513Q955.1953880251239 436.0405740670881 952.4547463014701 436.0405740670881L952.4547463014701 436.0405740670881Q944.8567070513403 436.0405740670881 940.3335341253099 432.56463822245394Q935.8326428393093 429.06642073779005 933.1811276757742 424.7660642120568L933.1811276757742 424.7660642120568L931.5322863135759 434.79280222542445L916.0242648529006 434.79280222542445ZM935.8326428393093 349.0976146711747L935.8326428393093 411.53077003441126Q937.1695412410916 414.49422815836226 939.4868318041811 416.9006452815705Q941.7818407272407 419.28478076474903 945.7034093724692 419.28478076474903L945.7034093724692 419.28478076474903Q948.6000225763308 419.28478076474903 950.8504682193312 417.72506596266965Q953.0786322223018 416.1430695205605 954.3709673440248 411.88727627488663Q955.6633024657478 407.609201389183 955.6633024657478 399.6100926185185L955.6633024657478 399.6100926185185L955.6633024657478 361.3970799675725Q955.6633024657478 353.33112627681885 954.3932489840545 349.1421779512341Q953.145477142391 344.9532296256493 950.9173131394203 343.3712331835402Q948.6891491364497 341.8115183814608 945.792535932588 341.8115183814608L945.792535932588 341.8115183814608Q942.1829102477755 341.8115183814608 939.7542114845376 343.9728374643423Q937.3255127212996 346.1118749071941 935.8326428393093 349.0976146711747L935.8326428393093 349.0976146711747ZM1020.3691851120143 435.97372914699895L1020.3691851120143 435.97372914699895Q1015.1998446251225 435.97372914699895 1009.9413775781119 434.4362959849492Q1004.7051921711309 432.9211444629292 1000.2711458052194 428.2197184166612Q995.8370994393078 423.51829237039317 993.185584275773 414.00403207770864Q990.5117874722082 404.4674901449945 990.5117874722082 388.4915542436952L990.5117874722082 388.4915542436952L990.5117874722082 371.57978946114815Q990.5117874722082 355.826669960146 993.2524291958621 346.62435262787733Q995.9930709195158 337.4220352956087 1000.4716805654867 332.92114400960804Q1004.928008571428 328.4202527236074 1010.1864756184386 327.03879104176565Q1015.4226610254195 325.6796109999535 1020.4360300321034 325.6796109999535L1020.4360300321034 325.6796109999535Q1025.2934275585794 325.6796109999535 1030.4627680454712 326.9719461216765Q1035.632108532363 328.2642812433995 1040.021591618215 332.6760459692813Q1044.4110747040672 337.1100923351928 1047.151716427721 346.4015362275803Q1049.892358151375 355.670698479938 1049.892358151375 371.57978946114815L1049.892358151375 371.57978946114815L1049.892358151375 388.4915542436952Q1049.892358151375 404.24467374469737 1047.0625898676024 413.69208911729277Q1044.2551032238594 423.11722284985854 1039.798775217918 427.93005709627505Q1035.3201655719472 432.7651729827212 1030.1953883651147 434.3694510648601Q1025.0706111582824 435.97372914699895 1020.3691851120143 435.97372914699895ZM1020.5251565922223 421.24556508736316L1020.5251565922223 421.24556508736316Q1025.850468559322 421.24556508736316 1027.9226610820847 415.36321211952077Q1029.9948536048473 409.4808591516784 1029.9948536048473 394.3739072115376L1029.9948536048473 394.3739072115376L1029.9948536048473 367.502249335712Q1029.9948536048473 352.30617083545235 1027.9226610820847 346.35697294752083Q1025.850468559322 340.4077750595893 1020.5251565922223 340.4077750595893L1020.5251565922223 340.4077750595893Q1014.9547465847958 340.4077750595893 1012.6820193017658 346.35697294752083Q1010.4092920187356 352.30617083545235 1010.4092920187356 367.502249335712L1010.4092920187356 367.502249335712L1010.4092920187356 394.3739072115376Q1010.4092920187356 409.4808591516784 1012.6820193017658 415.36321211952077Q1014.9547465847958 421.24556508736316 1020.5251565922223 421.24556508736316ZM1094.6116096909952 435.97372914699895L1094.6116096909952 435.97372914699895Q1089.4422692041035 435.97372914699895 1084.2060837971223 434.4362959849492Q1078.9476167501116 432.9211444629292 1074.53585202423 428.2197184166612Q1070.1018056583184 423.51829237039317 1067.4502904947833 414.00403207770864Q1064.7764936912188 404.4674901449945 1064.7764936912188 388.4915542436952L1064.7764936912188 388.4915542436952L1064.7764936912188 371.57978946114815Q1064.7764936912188 355.826669960146 1067.5171354148724 346.62435262787733Q1070.2577771385263 337.4220352956087 1074.7141051444676 332.92114400960804Q1079.1927147904385 328.4202527236074 1084.4289001974194 327.03879104176565Q1089.68736724443 325.6796109999535 1094.700736251114 325.6796109999535L1094.700736251114 325.6796109999535Q1099.5581337775898 325.6796109999535 1104.7274742644818 326.9719461216765Q1109.8968147513738 328.2642812433995 1114.286297837226 332.6760459692813Q1118.6757809230778 337.1100923351928 1121.4164226467317 346.4015362275803Q1124.1570643703856 355.670698479938 1124.1570643703856 371.57978946114815L1124.1570643703856 371.57978946114815L1124.1570643703856 388.4915542436952Q1124.1570643703856 404.24467374469737 1121.327296086613 413.69208911729277Q1118.5198094428697 423.11722284985854 1114.041199796899 427.93005709627505Q1109.5848717909575 432.7651729827212 1104.4600945841253 434.3694510648601Q1099.3130357372634 435.97372914699895 1094.6116096909952 435.97372914699895ZM1094.7675811712031 421.24556508736316L1094.7675811712031 421.24556508736316Q1100.1151747783324 421.24556508736316 1102.1873673010953 415.36321211952077Q1104.2595598238581 409.4808591516784 1104.2595598238581 394.3739072115376L1104.2595598238581 394.3739072115376L1104.2595598238581 367.502249335712Q1104.2595598238581 352.30617083545235 1102.1873673010953 346.35697294752083Q1100.1151747783324 340.4077750595893 1094.7675811712031 340.4077750595893L1094.7675811712031 340.4077750595893Q1089.2194528038062 340.4077750595893 1086.9467255207762 346.35697294752083Q1084.6739982377462 352.30617083545235 1084.6739982377462 367.502249335712L1084.6739982377462 367.502249335712L1084.6739982377462 394.3739072115376Q1084.6739982377462 409.4808591516784 1086.9467255207762 415.36321211952077Q1089.2194528038062 421.24556508736316 1094.7675811712031 421.24556508736316ZM1141.6927150737642 434.79280222542445L1141.6927150737642 292.3017142354538L1161.5233747002026 292.3017142354538L1161.5233747002026 374.32043118480203L1162.1472606210345 374.32043118480203L1183.7604514498494 326.92738284161715L1202.811253675248 326.92738284161715L1179.6829113244132 375.34538662616853L1205.0616993182487 434.79280222542445L1185.0082232915129 434.79280222542445L1162.1472606210345 381.29458451410005L1161.5233747002026 381.29458451410005L1161.5233747002026 434.79280222542445L1141.6927150737642 434.79280222542445Z " fill="#dbb98f" transform="matrix(0.7261038959657624,0,0,0.7261038959657625,0,37.84704374891825)"/></g></svg>